# xmcd
#
# Track frame offsets:
#	150
#	11802
#	24533
#	39785
#	52035
#	64756
#	89406
#	105116
#	117744
#	131604
#	143133
#	159750
#	177464
#	190471
#	197787
#	213096
#	224617
#	235173
#	257368
#	268309
#
# Disc length: 3788 seconds
#
# Revision: 3
# Processed by: cddbd v1.5.2PL0 Copyright (c) Steve Scherf et al.
# Submitted via: audiograbber 1.83.01
#
DISCID=220eca14
DTITLE=Various Artist - The Whole World In His Hands [CD 3)
DYEAR=2003
DGENRE=Gospel
TTITLE0=Charioteers - Amen
TTITLE1=The Staple Singers - Will The Circle Be Unbroken
TTITLE2=The Harmonizing Four - Rock Of Anges
TTITLE3=The Five Blind Boys Of Alabama - Just A Closer Walk With Thee
TTITLE4=Swan Silvertones - Working On A Building
TTITLE5=The Carolina Spirituals - It's Gonna Rain
TTITLE6=Highway Q C's - Amazing Grace
TTITLE7=The Blind Boys Of Mississippi - Where He Leads Me
TTITLE8=Cross Jordan Singers - Early In The Morning
TTITLE9=The Caravans - Lord Don't Leave Us Now
TTITLE10=The Oroginal Gospel Harmonettes - Step By Step
TTITLE11=The Greater Harvest Choir - He Has A Way
TTITLE12=Alex Bradford - Too Close To Heaven
TTITLE13=The Argo Singers - See How He Kept Me
TTITLE14=The Oak Ridge Boys - Farther ALong
TTITLE15=The Raspberry Singers - Jesus Is Alright With Me
TTITLE16=The Pilgram Travellers - This Little Light Of Mine
TTITLE17=Clarence Fountain - How Far Am I From Canaan
TTITLE18=The Platters - I Believe
TTITLE19=The Happy Day Singers - The Old Rugged Cross
EXTD=YEAR: 2004
EXTT0=
EXTT1=
EXTT2=
EXTT3=
EXTT4=
EXTT5=
EXTT6=
EXTT7=
EXTT8=
EXTT9=
EXTT10=
EXTT11=
EXTT12=
EXTT13=
EXTT14=
EXTT15=
EXTT16=
EXTT17=
EXTT18=
EXTT19=
PLAYORDER=
